<svg width="590" height="592" viewBox="0 0 590 592" fill="none" xmlns="http://www.w3.org/2000/svg">
<rect x="218" y="218.5" width="89.2019" height="91.5" fill="white"/>
<mask id="mask0_26_143" style="mask-type:alpha" maskUnits="userSpaceOnUse" x="218" y="218" width="90" height="92">
<rect x="218" y="218.5" width="89.2019" height="91.5" fill="#EBEBEB"/>
</mask>
<g mask="url(#mask0_26_143)">
<g opacity="0.1" filter="url(#filter0_f_26_143)">
<path d="M209.191 324.759L316.122 279.319V346.15H209.191V324.759Z" fill="black"/>
</g>
<g opacity="0.1" filter="url(#filter1_f_26_143)">
<path d="M188.452 237H315.509L247.381 328.459H188.452V237Z" fill="black"/>
</g>
<g opacity="0.3">
<rect opacity="0.1" x="218" y="225.784" width="89.2019" height="0.4625" fill="black"/>
<rect opacity="0.1" x="218" y="233.531" width="89.2019" height="0.4625" fill="black"/>
<rect opacity="0.1" x="218" y="241.278" width="89.2019" height="0.4625" fill="black"/>
<rect opacity="0.1" x="218" y="249.025" width="89.2019" height="0.4625" fill="black"/>
<rect opacity="0.1" x="218" y="256.772" width="89.2019" height="0.4625" fill="black"/>
<rect opacity="0.1" x="218" y="264.519" width="89.2019" height="0.4625" fill="black"/>
<rect opacity="0.1" x="218" y="272.266" width="89.2019" height="0.4625" fill="black"/>
<rect opacity="0.1" x="218" y="280.012" width="89.2019" height="0.4625" fill="black"/>
<rect opacity="0.1" x="218" y="287.759" width="89.2019" height="0.4625" fill="black"/>
<rect opacity="0.1" x="218" y="295.506" width="89.2019" height="0.4625" fill="black"/>
<rect opacity="0.1" x="218" y="303.253" width="89.2019" height="0.4625" fill="black"/>
</g>
</g>
<g filter="url(#filter2_ddii_26_143)">
<path d="M218 218.5H307.202V218.5C307.202 241.233 298.32 263.067 282.451 279.344L276.695 285.249C261.266 301.075 240.101 310 218 310V310V218.5Z" fill="white"/>
</g>
<mask id="mask1_26_143" style="mask-type:alpha" maskUnits="userSpaceOnUse" x="218" y="218" width="90" height="92">
<path d="M218 218.5H307.202V218.5C307.202 241.233 298.32 263.067 282.451 279.344L276.695 285.249C261.266 301.075 240.101 310 218 310V310V218.5Z" fill="#F8F8F8"/>
</mask>
<g mask="url(#mask1_26_143)">
<g opacity="0.3" filter="url(#filter3_f_26_143)">
<path d="M209.191 314.18L316.122 269.375V322.216H209.191V314.18Z" fill="black"/>
</g>
<g opacity="0.3" filter="url(#filter4_f_26_143)">
<path d="M227.812 315.741L300.177 293.83V322.216H227.812V315.741Z" fill="black"/>
</g>
<g opacity="0.3" filter="url(#filter5_f_26_143)">
<path d="M215.881 222.547H321.92L215.881 332.506V222.547Z" fill="white"/>
</g>
</g>
<g filter="url(#filter6_dd_26_143)">
<path d="M218 218.5H307.202V241.95C307.202 254.266 297.218 264.25 284.901 264.25V264.25C272.585 264.25 262.601 274.234 262.601 286.55V287.125C262.601 299.759 252.359 310 239.726 310H218V218.5Z" fill="white"/>
</g>
<mask id="mask2_26_143" style="mask-type:alpha" maskUnits="userSpaceOnUse" x="218" y="218" width="90" height="92">
<path d="M218 218.5H307.202V241.95C307.202 254.266 297.218 264.25 284.901 264.25V264.25C272.585 264.25 262.601 274.234 262.601 286.55V287.125C262.601 299.759 252.359 310 239.726 310H218V218.5Z" fill="white"/>
</mask>
<g mask="url(#mask2_26_143)">
<g opacity="0.04">
<rect x="218" y="241.278" width="89.2019" height="0.4625" fill="black"/>
<rect x="218" y="249.025" width="89.2019" height="0.4625" fill="black"/>
<rect x="218" y="256.772" width="89.2019" height="0.4625" fill="black"/>
<rect x="218" y="264.519" width="89.2019" height="0.4625" fill="black"/>
<rect x="218" y="272.266" width="89.2019" height="0.4625" fill="black"/>
<rect x="218" y="280.012" width="89.2019" height="0.4625" fill="black"/>
<rect x="218" y="287.759" width="89.2019" height="0.4625" fill="black"/>
<rect x="218" y="295.506" width="89.2019" height="0.4625" fill="black"/>
<rect x="218" y="303.253" width="89.2019" height="0.4625" fill="black"/>
</g>
<rect x="218" y="218.5" width="89.2019" height="22.7781" fill="#8FA0F3"/>
<g opacity="0.2" filter="url(#filter7_f_26_143)">
<path d="M209.191 301.461L316.122 256.656V322.216H209.191V301.461Z" fill="black"/>
</g>
<g opacity="0.2" filter="url(#filter8_f_26_143)">
<path d="M221.958 319.556L328.889 274.752V322.967H221.958V319.556Z" fill="black"/>
</g>
<g opacity="0.4" filter="url(#filter9_f_26_143)">
<path d="M209.86 333.605L321.363 217.98V333.605H209.86Z" fill="white"/>
</g>
<g opacity="0.4" filter="url(#filter10_f_26_143)">
<path d="M177.636 195.837H283.675L177.636 305.797V195.837Z" fill="white"/>
</g>
<g opacity="0.4" filter="url(#filter11_f_26_143)">
<path d="M177.636 195.837H283.675L177.636 305.797V195.837Z" fill="white"/>
</g>
<mask id="mask3_26_143" style="mask-type:alpha" maskUnits="userSpaceOnUse" x="216" y="215" width="55" height="104">
<path d="M217.498 317.706L246.322 215.783H270.016V317.706H217.498Z" fill="#D9D9D9" stroke="black"/>
</mask>
<g mask="url(#mask3_26_143)">
<g opacity="0.5" filter="url(#filter12_f_26_143)">
<path d="M238.024 221.756C238.951 218.17 242.595 216.066 246.164 217.058V217.058C249.733 218.05 251.875 221.761 250.948 225.347L236.399 281.654C235.023 286.98 233.122 292.145 230.724 297.073V297.073C228.264 302.13 220.646 300.013 220.954 294.358V294.358C221.254 288.847 222.098 283.388 223.474 278.063L238.024 221.756Z" fill="black"/>
</g>
</g>
</g>
<g opacity="0.1">
<mask id="mask4_26_143" style="mask-type:alpha" maskUnits="userSpaceOnUse" x="218" y="218" width="95" height="86">
<rect x="218" y="218.5" width="95" height="85.3719" fill="url(#paint0_linear_26_143)"/>
</mask>
<g mask="url(#mask4_26_143)">
<rect x="218" y="218.5" width="95" height="85.3719" fill="black"/>
</g>
</g>
<g filter="url(#filter13_iii_26_143)">
<path d="M251.548 216.991C255.412 207.607 266.649 201.413 276.646 203.156V203.156C286.644 204.899 291.616 213.919 287.752 223.303L276.925 249.596C270.328 265.615 259.511 280.618 245.484 293.201V293.201C241.407 296.859 235.164 295.77 234.444 291.276V291.276C231.965 275.815 234.125 259.303 240.721 243.284L251.548 216.991Z" fill="white"/>
</g>
<g filter="url(#filter14_if_26_143)">
<path d="M265.024 212.535C266.57 208.781 271.064 206.303 275.063 207.001V207.001C279.062 207.698 281.051 211.306 279.506 215.059L257.751 267.891C256.205 271.644 251.71 274.122 247.711 273.425V273.425C243.712 272.727 241.723 269.119 243.269 265.366L265.024 212.535Z" fill="white"/>
</g>
<path opacity="0.08" d="M236.513 281.773C236.658 281.419 237.082 281.186 237.459 281.252L250.575 283.539C250.952 283.604 251.14 283.944 250.994 284.298V284.298C250.849 284.652 250.425 284.886 250.048 284.82L236.932 282.533C236.555 282.467 236.367 282.127 236.513 281.773V281.773Z" fill="black"/>
<path opacity="0.04" d="M267.581 215.748C268.354 213.871 270.601 212.632 272.601 212.981V212.981C274.6 213.33 275.595 215.134 274.822 217.01L272.344 223.029C271.571 224.906 269.323 226.144 267.324 225.796V225.796C265.324 225.447 264.33 223.643 265.103 221.766L267.581 215.748Z" fill="black"/>
<defs>
<filter id="filter0_f_26_143" x="-46.8087" y="23.3187" width="618.931" height="578.831" filterUnits="userSpaceOnUse" color-interpolation-filters="sRGB">
<feFlood flood-opacity="0" result="BackgroundImageFix"/>
<feBlend mode="normal" in="SourceGraphic" in2="BackgroundImageFix" result="shape"/>
<feGaussianBlur stdDeviation="128" result="effect1_foregroundBlur_26_143"/>
</filter>
<filter id="filter1_f_26_143" x="124.452" y="173" width="255.057" height="219.459" filterUnits="userSpaceOnUse" color-interpolation-filters="sRGB">
<feFlood flood-opacity="0" result="BackgroundImageFix"/>
<feBlend mode="normal" in="SourceGraphic" in2="BackgroundImageFix" result="shape"/>
<feGaussianBlur stdDeviation="32" result="effect1_foregroundBlur_26_143"/>
</filter>
<filter id="filter2_ddii_26_143" x="0" y="0.5" width="589.202" height="591.5" filterUnits="userSpaceOnUse" color-interpolation-filters="sRGB">
<feFlood flood-opacity="0" result="BackgroundImageFix"/>
<feColorMatrix in="SourceAlpha" type="matrix" values="0 0 0 0 0 0 0 0 0 0 0 0 0 0 0 0 0 0 127 0" result="hardAlpha"/>
<feOffset dx="32" dy="32"/>
<feGaussianBlur stdDeviation="125"/>
<feComposite in2="hardAlpha" operator="out"/>
<feColorMatrix type="matrix" values="0 0 0 0 0 0 0 0 0 0 0 0 0 0 0 0 0 0 0.32 0"/>
<feBlend mode="normal" in2="BackgroundImageFix" result="effect1_dropShadow_26_143"/>
<feColorMatrix in="SourceAlpha" type="matrix" values="0 0 0 0 0 0 0 0 0 0 0 0 0 0 0 0 0 0 127 0" result="hardAlpha"/>
<feOffset dx="4" dy="4"/>
<feGaussianBlur stdDeviation="32"/>
<feComposite in2="hardAlpha" operator="out"/>
<feColorMatrix type="matrix" values="0 0 0 0 0 0 0 0 0 0 0 0 0 0 0 0 0 0 0.12 0"/>
<feBlend mode="normal" in2="effect1_dropShadow_26_143" result="effect2_dropShadow_26_143"/>
<feBlend mode="normal" in="SourceGraphic" in2="effect2_dropShadow_26_143" result="shape"/>
<feColorMatrix in="SourceAlpha" type="matrix" values="0 0 0 0 0 0 0 0 0 0 0 0 0 0 0 0 0 0 127 0" result="hardAlpha"/>
<feOffset dx="-32" dy="-32"/>
<feGaussianBlur stdDeviation="32"/>
<feComposite in2="hardAlpha" operator="arithmetic" k2="-1" k3="1"/>
<feColorMatrix type="matrix" values="0 0 0 0 0 0 0 0 0 0 0 0 0 0 0 0 0 0 0.12 0"/>
<feBlend mode="normal" in2="shape" result="effect3_innerShadow_26_143"/>
<feColorMatrix in="SourceAlpha" type="matrix" values="0 0 0 0 0 0 0 0 0 0 0 0 0 0 0 0 0 0 127 0" result="hardAlpha"/>
<feOffset dx="-4" dy="-4"/>
<feGaussianBlur stdDeviation="16"/>
<feComposite in2="hardAlpha" operator="arithmetic" k2="-1" k3="1"/>
<feColorMatrix type="matrix" values="0 0 0 0 0 0 0 0 0 0 0 0 0 0 0 0 0 0 0.16 0"/>
<feBlend mode="normal" in2="effect3_innerShadow_26_143" result="effect4_innerShadow_26_143"/>
</filter>
<filter id="filter3_f_26_143" x="-302.809" y="-242.625" width="1130.93" height="1076.84" filterUnits="userSpaceOnUse" color-interpolation-filters="sRGB">
<feFlood flood-opacity="0" result="BackgroundImageFix"/>
<feBlend mode="normal" in="SourceGraphic" in2="BackgroundImageFix" result="shape"/>
<feGaussianBlur stdDeviation="256" result="effect1_foregroundBlur_26_143"/>
</filter>
<filter id="filter4_f_26_143" x="99.8122" y="165.83" width="328.365" height="284.386" filterUnits="userSpaceOnUse" color-interpolation-filters="sRGB">
<feFlood flood-opacity="0" result="BackgroundImageFix"/>
<feBlend mode="normal" in="SourceGraphic" in2="BackgroundImageFix" result="shape"/>
<feGaussianBlur stdDeviation="64" result="effect1_foregroundBlur_26_143"/>
</filter>
<filter id="filter5_f_26_143" x="167.881" y="174.547" width="202.039" height="205.959" filterUnits="userSpaceOnUse" color-interpolation-filters="sRGB">
<feFlood flood-opacity="0" result="BackgroundImageFix"/>
<feBlend mode="normal" in="SourceGraphic" in2="BackgroundImageFix" result="shape"/>
<feGaussianBlur stdDeviation="24" result="effect1_foregroundBlur_26_143"/>
</filter>
<filter id="filter6_dd_26_143" x="214" y="214.5" width="105.202" height="107.5" filterUnits="userSpaceOnUse" color-interpolation-filters="sRGB">
<feFlood flood-opacity="0" result="BackgroundImageFix"/>
<feColorMatrix in="SourceAlpha" type="matrix" values="0 0 0 0 0 0 0 0 0 0 0 0 0 0 0 0 0 0 127 0" result="hardAlpha"/>
<feOffset dy="2"/>
<feGaussianBlur stdDeviation="1"/>
<feComposite in2="hardAlpha" operator="out"/>
<feColorMatrix type="matrix" values="0 0 0 0 1 0 0 0 0 1 0 0 0 0 1 0 0 0 0.64 0"/>
<feBlend mode="normal" in2="BackgroundImageFix" result="effect1_dropShadow_26_143"/>
<feColorMatrix in="SourceAlpha" type="matrix" values="0 0 0 0 0 0 0 0 0 0 0 0 0 0 0 0 0 0 127 0" result="hardAlpha"/>
<feOffset dx="4" dy="4"/>
<feGaussianBlur stdDeviation="4"/>
<feComposite in2="hardAlpha" operator="out"/>
<feColorMatrix type="matrix" values="0 0 0 0 1 0 0 0 0 1 0 0 0 0 1 0 0 0 0.25 0"/>
<feBlend mode="normal" in2="effect1_dropShadow_26_143" result="effect2_dropShadow_26_143"/>
<feBlend mode="normal" in="SourceGraphic" in2="effect2_dropShadow_26_143" result="shape"/>
</filter>
<filter id="filter7_f_26_143" x="-302.809" y="-255.344" width="1130.93" height="1089.56" filterUnits="userSpaceOnUse" color-interpolation-filters="sRGB">
<feFlood flood-opacity="0" result="BackgroundImageFix"/>
<feBlend mode="normal" in="SourceGraphic" in2="BackgroundImageFix" result="shape"/>
<feGaussianBlur stdDeviation="256" result="effect1_foregroundBlur_26_143"/>
</filter>
<filter id="filter8_f_26_143" x="93.9583" y="146.752" width="362.931" height="304.216" filterUnits="userSpaceOnUse" color-interpolation-filters="sRGB">
<feFlood flood-opacity="0" result="BackgroundImageFix"/>
<feBlend mode="normal" in="SourceGraphic" in2="BackgroundImageFix" result="shape"/>
<feGaussianBlur stdDeviation="64" result="effect1_foregroundBlur_26_143"/>
</filter>
<filter id="filter9_f_26_143" x="-46.1397" y="-38.0203" width="623.502" height="627.625" filterUnits="userSpaceOnUse" color-interpolation-filters="sRGB">
<feFlood flood-opacity="0" result="BackgroundImageFix"/>
<feBlend mode="normal" in="SourceGraphic" in2="BackgroundImageFix" result="shape"/>
<feGaussianBlur stdDeviation="128" result="effect1_foregroundBlur_26_143"/>
</filter>
<filter id="filter10_f_26_143" x="-78.3638" y="-60.1625" width="618.039" height="621.959" filterUnits="userSpaceOnUse" color-interpolation-filters="sRGB">
<feFlood flood-opacity="0" result="BackgroundImageFix"/>
<feBlend mode="normal" in="SourceGraphic" in2="BackgroundImageFix" result="shape"/>
<feGaussianBlur stdDeviation="128" result="effect1_foregroundBlur_26_143"/>
</filter>
<filter id="filter11_f_26_143" x="-334.364" y="-316.163" width="1130.04" height="1133.96" filterUnits="userSpaceOnUse" color-interpolation-filters="sRGB">
<feFlood flood-opacity="0" result="BackgroundImageFix"/>
<feBlend mode="normal" in="SourceGraphic" in2="BackgroundImageFix" result="shape"/>
<feGaussianBlur stdDeviation="256" result="effect1_foregroundBlur_26_143"/>
</filter>
<filter id="filter12_f_26_143" x="92.9449" y="88.8127" width="286.219" height="339.12" filterUnits="userSpaceOnUse" color-interpolation-filters="sRGB">
<feFlood flood-opacity="0" result="BackgroundImageFix"/>
<feBlend mode="normal" in="SourceGraphic" in2="BackgroundImageFix" result="shape"/>
<feGaussianBlur stdDeviation="64" result="effect1_foregroundBlur_26_143"/>
</filter>
<filter id="filter13_iii_26_143" x="201.446" y="170.862" width="87.6157" height="124.536" filterUnits="userSpaceOnUse" color-interpolation-filters="sRGB">
<feFlood flood-opacity="0" result="BackgroundImageFix"/>
<feBlend mode="normal" in="SourceGraphic" in2="BackgroundImageFix" result="shape"/>
<feColorMatrix in="SourceAlpha" type="matrix" values="0 0 0 0 0 0 0 0 0 0 0 0 0 0 0 0 0 0 127 0" result="hardAlpha"/>
<feOffset dx="-24" dy="-24"/>
<feGaussianBlur stdDeviation="24"/>
<feComposite in2="hardAlpha" operator="arithmetic" k2="-1" k3="1"/>
<feColorMatrix type="matrix" values="0 0 0 0 0 0 0 0 0 0 0 0 0 0 0 0 0 0 0.16 0"/>
<feBlend mode="normal" in2="shape" result="effect1_innerShadow_26_143"/>
<feColorMatrix in="SourceAlpha" type="matrix" values="0 0 0 0 0 0 0 0 0 0 0 0 0 0 0 0 0 0 127 0" result="hardAlpha"/>
<feOffset dx="-32" dy="-32"/>
<feGaussianBlur stdDeviation="64"/>
<feComposite in2="hardAlpha" operator="arithmetic" k2="-1" k3="1"/>
<feColorMatrix type="matrix" values="0 0 0 0 0 0 0 0 0 0 0 0 0 0 0 0 0 0 0.1 0"/>
<feBlend mode="normal" in2="effect1_innerShadow_26_143" result="effect2_innerShadow_26_143"/>
<feColorMatrix in="SourceAlpha" type="matrix" values="0 0 0 0 0 0 0 0 0 0 0 0 0 0 0 0 0 0 127 0" result="hardAlpha"/>
<feOffset dx="-4" dy="-8"/>
<feGaussianBlur stdDeviation="6"/>
<feComposite in2="hardAlpha" operator="arithmetic" k2="-1" k3="1"/>
<feColorMatrix type="matrix" values="0 0 0 0 0 0 0 0 0 0 0 0 0 0 0 0 0 0 0.08 0"/>
<feBlend mode="normal" in2="effect2_innerShadow_26_143" result="effect3_innerShadow_26_143"/>
</filter>
<filter id="filter14_if_26_143" x="226.745" y="190.883" width="55.2847" height="84.659" filterUnits="userSpaceOnUse" color-interpolation-filters="sRGB">
<feFlood flood-opacity="0" result="BackgroundImageFix"/>
<feBlend mode="normal" in="SourceGraphic" in2="BackgroundImageFix" result="shape"/>
<feColorMatrix in="SourceAlpha" type="matrix" values="0 0 0 0 0 0 0 0 0 0 0 0 0 0 0 0 0 0 127 0" result="hardAlpha"/>
<feOffset dx="-16" dy="-16"/>
<feGaussianBlur stdDeviation="32"/>
<feComposite in2="hardAlpha" operator="arithmetic" k2="-1" k3="1"/>
<feColorMatrix type="matrix" values="0 0 0 0 0 0 0 0 0 0 0 0 0 0 0 0 0 0 0.12 0"/>
<feBlend mode="normal" in2="shape" result="effect1_innerShadow_26_143"/>
<feGaussianBlur stdDeviation="1" result="effect2_foregroundBlur_26_143"/>
</filter>
<linearGradient id="paint0_linear_26_143" x1="265.5" y1="218.5" x2="265.5" y2="303.872" gradientUnits="userSpaceOnUse">
<stop stop-opacity="0"/>
<stop offset="1" stop-opacity="0.32"/>
</linearGradient>
</defs>
</svg>
